<?xml version="1.0" encoding="utf-8"?>
<!-- Generator: Adobe Illustrator 21.0.0, SVG Export Plug-In . SVG Version: 6.00 Build 0)  -->
<svg version="1.1" id="Layer_1" xmlns="http://www.w3.org/2000/svg" xmlns:xlink="http://www.w3.org/1999/xlink" x="0px" y="0px"
	 viewBox="0 0 128 128" style="enable-background:new 0 0 128 128;" xml:space="preserve">
<style type="text/css">
	.st0{fill:#B895F1;}
	.st1{fill:#FFFFFF;}
</style>
<path class="st0" d="M0,64.1C-0.1,28.8,28.5,0.1,63.9,0c35.3-0.1,64.1,28.5,64.1,63.9c0.1,35.4-28.5,64.1-63.9,64.1
	C28.8,128.1,0.1,99.5,0,64.1"/>
<path class="st1" d="M102,100.4L78.2,76.7c0.1-0.1,0.2-0.2,0.2-0.2c0.1-0.1,0.2-0.2,0.3-0.4c1.7-1.8,3.1-3.9,4.2-6.1
	c0.1-0.1,0.1-0.2,0.2-0.4c0.6-1.2,1.1-2.4,1.6-3.7h16.6c0.6,0,1-0.5,1-1c0-0.6-0.4-1-1-1h-16c0.5-1.8,0.8-3.8,0.9-5.8h15
	c0.6,0,1-0.5,1-1c0-0.6-0.4-1-1-1H86.3c0-0.7-0.1-1.3-0.1-2c0,0,0-0.1,0-0.1c0-0.1,0-0.2,0-0.2c-0.1-1.2-0.2-2.3-0.4-3.4h15.5
	c0.6,0,1-0.5,1-1c0-0.6-0.4-1-1-1h-16c-0.4-1.3-0.8-2.6-1.3-3.9l0-0.1c-0.2-0.6-0.6-1.2-0.8-1.8h18.1c0.6,0,1-0.5,1-1s-0.4-1-1-1H82
	c-0.5-0.8-1-1.6-1.6-2.3c-0.1-0.2-0.2-0.3-0.3-0.4c-5.5-7.2-14.2-11.9-24-11.9c-16.7,0-30.3,13.5-30.3,30.2
	c0,16.7,13.6,30.2,30.3,30.2c7.9,0,15.2-3.1,20.6-8.2l23.8,23.8c0.2,0.2,0.5,0.3,0.7,0.3c0.2,0,0.5-0.1,0.7-0.3
	C102.4,101.5,102.4,100.9,102,100.4z M84.3,56c0,1.1-0.1,2.1-0.2,3.2H61V55h23.2C84.3,55.3,84.3,55.7,84.3,56z M78.9,39.5
	c1,1.3,1.8,2.7,2.5,4.2H68.2v-4.2H78.9z M56.1,84.2c-15.5,0-28.2-12.7-28.2-28.2c0-15.5,12.6-28.2,28.2-28.2c8.4,0,16,3.7,21.1,9.6
	H67.2c-0.6,0-1,0.5-1,1v6.2c0,0.5,0.5,1,1,1h15.1c0.9,2.3,1.5,4.7,1.8,7.2H60c-0.6,0-1,0.5-1,1v6.2c0,0.5,0.4,1,1,1h23.8
	c-0.4,2.5-1.2,4.9-2.3,7.1H67.1c-0.6,0-1,0.5-1,1v6.2c0,0.6,0.4,1,1,1h8.3C70.3,81.3,63.6,84.2,56.1,84.2z M68.1,74.6v-4.2h12.3
	c-0.9,1.5-1.9,2.9-3.1,4.2H68.1z M60,68.3H45.1c-0.6,0-1,0.5-1,1v6.2c0,0.6,0.4,1,1,1H60c0.6,0,1-0.5,1-1v-6.2
	C61,68.8,60.5,68.3,60,68.3z M59,74.6H46.1v-4.2H59V74.6z M52.5,52.9H39.4c-0.6,0-1,0.5-1,1v6.2c0,0.6,0.4,1,1,1h13.1
	c0.6,0,1-0.5,1-1v-6.2C53.5,53.4,53.1,52.9,52.5,52.9z M51.5,59.1H40.4v-4.2h11.1V59.1z M60,37.5H45.1c-0.6,0-1,0.5-1,1v6.2
	c0,0.5,0.4,1,1,1H60c0.6,0,1-0.5,1-1v-6.2C61,37.9,60.5,37.5,60,37.5z M59,43.7H46.1v-4.2H59V43.7z"/>
</svg>
